<?xml version="1.0" standalone="no"?>
<!DOCTYPE svg PUBLIC "-//W3C//DTD SVG 20010904//EN"
 "http://www.w3.org/TR/2001/REC-SVG-20010904/DTD/svg10.dtd">
<svg version="1.0" xmlns="http://www.w3.org/2000/svg"
 width="512.000000pt" height="512.000000pt" viewBox="0 0 512.000000 512.000000"
 preserveAspectRatio="xMidYMid meet">
<metadata>
Created by potrace 1.16, written by Peter Selinger 2001-2019
</metadata>
<g transform="translate(0.000000,512.000000) scale(0.237037,-0.237037)"
fill="#000000" stroke="none">
<path d="M341 1380 c-60 -14 -73 -37 -80 -143 -6 -98 -18 -127 -52 -127 -28 0
-28 -76 0 -85 35 -11 46 -37 52 -127 8 -112 28 -138 108 -146 l51 -5 0 42 c0
36 -3 41 -23 41 -36 0 -47 19 -47 84 0 63 -29 146 -50 146 -7 0 0 14 14 30 24
30 33 67 39 160 2 41 4 45 32 50 27 5 30 9 30 45 0 45 -12 50 -74 35z"/>
<path d="M1790 1350 c0 -35 3 -40 23 -40 35 0 47 -19 47 -76 0 -74 9 -110 35
-138 20 -22 21 -27 9 -37 -27 -23 -37 -53 -43 -134 -6 -79 -6 -80 -36 -85 -26
-4 -30 -10 -33 -43 -4 -46 7 -51 73 -34 65 16 85 52 85 152 0 77 17 115 51
115 28 0 28 76 -1 85 -41 13 -50 33 -50 108 0 116 -37 167 -122 167 -38 0 -38
0 -38 -40z"/>
<path d="M774 1250 c-61 -24 -83 -107 -40 -153 21 -22 107 -57 142 -57 15 0
44 -27 44 -41 0 -21 -42 -49 -73 -49 -34 0 -77 33 -77 58 0 14 -39 16 -59 3
-35 -22 26 -106 86 -117 51 -10 122 1 152 23 31 24 49 82 35 120 -12 37 -59
67 -127 82 -59 13 -83 31 -74 56 14 34 105 30 114 -5 4 -16 14 -20 45 -20 39
0 40 1 33 27 -9 37 -24 53 -62 70 -36 14 -107 16 -139 3z"/>
<path d="M1155 1253 c-97 -25 -146 -168 -92 -273 31 -61 65 -83 135 -88 73 -5
120 14 158 63 40 53 46 150 12 215 -36 71 -124 105 -213 83z m133 -88 c31 -36
32 -140 2 -178 -39 -49 -131 -41 -160 12 -13 25 -13 127 0 151 29 54 117 62
158 15z"/>
<path d="M1693 1253 c-22 -4 -23 -8 -23 -121 l0 -117 -72 117 c-72 115 -74
117 -110 118 l-38 0 0 -181 0 -180 33 3 32 3 3 114 3 113 72 -113 c70 -109 74
-114 107 -114 l35 0 0 179 c0 112 -4 180 -10 181 -5 1 -20 0 -32 -2z"/>
<path d="M560 1112 c0 -147 -5 -162 -48 -162 -17 0 -26 8 -33 30 -9 24 -17 30
-39 30 -37 0 -44 -13 -30 -55 14 -43 53 -65 113 -65 55 0 93 27 107 78 5 20
10 92 10 160 l0 122 -40 0 -40 0 0 -138z"/>
</g>
</svg>
